<?xml version="1.0" encoding="UTF-8"?>
<mxfile host="ac.draw.io" modified="2023-05-19T12:05:26.376Z" agent="Mozilla/5.0 (X11; Linux x86_64) AppleWebKit/537.36 (KHTML, like Gecko) Chrome/113.0.0.0 Safari/537.36" etag="3x3Qn8XYc_x8mkY--nD-" version="21.3.2" type="embed">
  <diagram id="8VCpss-FVILqFPgny7ja" name="Page-1">
    <mxGraphModel dx="2000" dy="1173" grid="1" gridSize="10" guides="1" tooltips="1" connect="1" arrows="1" fold="1" page="1" pageScale="1" pageWidth="827" pageHeight="1169" math="0" shadow="0">
      <root>
        <mxCell id="0" />
        <mxCell id="1" parent="0" />
        <mxCell id="g5dJ3lTWeKkPB1iucdt4-3" value="&lt;h4&gt;Application Board&lt;/h4&gt;" style="rounded=1;whiteSpace=wrap;html=1;absoluteArcSize=1;arcSize=14;strokeWidth=2;horizontal=1;verticalAlign=top;" parent="1" vertex="1">
          <mxGeometry x="130" y="310" width="150" height="130" as="geometry" />
        </mxCell>
        <mxCell id="g5dJ3lTWeKkPB1iucdt4-4" value="&lt;b&gt;firmware.fwu2&lt;/b&gt;" style="rounded=1;whiteSpace=wrap;html=1;absoluteArcSize=1;arcSize=14;strokeWidth=2;" parent="1" vertex="1">
          <mxGeometry x="150" y="370" width="110" height="40" as="geometry" />
        </mxCell>
        <mxCell id="g5dJ3lTWeKkPB1iucdt4-5" value="Shuttle board" style="rounded=1;whiteSpace=wrap;html=1;absoluteArcSize=1;arcSize=14;strokeWidth=2;" parent="1" vertex="1">
          <mxGeometry x="145" y="290" width="120" height="20" as="geometry" />
        </mxCell>
        <mxCell id="g5dJ3lTWeKkPB1iucdt4-6" value="Sensor" style="rounded=1;whiteSpace=wrap;html=1;absoluteArcSize=1;arcSize=14;strokeWidth=2;" parent="1" vertex="1">
          <mxGeometry x="150" y="270" width="80" height="20" as="geometry" />
        </mxCell>
        <mxCell id="g5dJ3lTWeKkPB1iucdt4-7" value="&lt;h4&gt;PC (host)&lt;/h4&gt;" style="rounded=0;whiteSpace=wrap;html=1;absoluteArcSize=1;arcSize=14;strokeWidth=2;shadow=0;glass=0;verticalAlign=top;align=left;spacingLeft=10;" parent="1" vertex="1">
          <mxGeometry x="430" y="190" width="210" height="250" as="geometry" />
        </mxCell>
        <mxCell id="g5dJ3lTWeKkPB1iucdt4-8" value="&lt;h4&gt;example.exe&lt;/h4&gt;" style="rounded=0;whiteSpace=wrap;html=1;absoluteArcSize=1;arcSize=14;strokeWidth=2;shadow=0;glass=0;verticalAlign=top;align=left;spacingLeft=10;" parent="1" vertex="1">
          <mxGeometry x="450" y="240" width="170" height="190" as="geometry" />
        </mxCell>
        <mxCell id="g5dJ3lTWeKkPB1iucdt4-9" value="&lt;h4&gt;&lt;span style=&quot;font-weight: normal;&quot;&gt;example.c&lt;/span&gt;&lt;/h4&gt;" style="rounded=0;whiteSpace=wrap;html=1;absoluteArcSize=1;arcSize=14;strokeWidth=2;shadow=0;glass=0;verticalAlign=top;align=left;spacingLeft=10;fontStyle=1" parent="1" vertex="1">
          <mxGeometry x="470" y="290" width="150" height="130" as="geometry" />
        </mxCell>
        <mxCell id="g5dJ3lTWeKkPB1iucdt4-10" value="SensorAPI" style="rounded=0;whiteSpace=wrap;html=1;absoluteArcSize=1;arcSize=14;strokeWidth=2;shadow=0;glass=0;verticalAlign=top;align=left;spacingLeft=10;spacing=2;spacingTop=0;" parent="1" vertex="1">
          <mxGeometry x="510" y="340" width="110" height="30" as="geometry" />
        </mxCell>
        <mxCell id="g5dJ3lTWeKkPB1iucdt4-11" value="COINES API" style="rounded=0;whiteSpace=wrap;html=1;absoluteArcSize=1;arcSize=14;strokeWidth=2;shadow=0;glass=0;verticalAlign=top;align=left;spacingLeft=10;spacing=2;spacingTop=0;" parent="1" vertex="1">
          <mxGeometry x="470" y="370" width="150" height="30" as="geometry" />
        </mxCell>
        <mxCell id="g5dJ3lTWeKkPB1iucdt4-12" value="WinUSB, libUSB, BST" style="rounded=0;whiteSpace=wrap;html=1;absoluteArcSize=1;arcSize=14;strokeWidth=2;shadow=0;glass=0;verticalAlign=top;align=left;spacingLeft=10;spacing=2;spacingTop=0;" parent="1" vertex="1">
          <mxGeometry x="470" y="400" width="150" height="30" as="geometry" />
        </mxCell>
        <mxCell id="g5dJ3lTWeKkPB1iucdt4-14" style="edgeStyle=orthogonalEdgeStyle;rounded=0;orthogonalLoop=1;jettySize=auto;html=1;entryX=0;entryY=0.5;entryDx=0;entryDy=0;curved=1;endArrow=none;endFill=0;" parent="1" source="g5dJ3lTWeKkPB1iucdt4-4" target="g5dJ3lTWeKkPB1iucdt4-12" edge="1">
          <mxGeometry relative="1" as="geometry" />
        </mxCell>
        <mxCell id="g5dJ3lTWeKkPB1iucdt4-15" value="USB" style="edgeLabel;html=1;align=center;verticalAlign=middle;resizable=0;points=[];fontSize=15;" parent="g5dJ3lTWeKkPB1iucdt4-14" vertex="1" connectable="0">
          <mxGeometry x="-0.4597" relative="1" as="geometry">
            <mxPoint x="37" y="10" as="offset" />
          </mxGeometry>
        </mxCell>
      </root>
    </mxGraphModel>
  </diagram>
</mxfile>
